#N canvas 83 64 1333 816 10;
#X text 326 -45 BUTTON SELECTOR;
#X obj 361 -28 ctlin;
#X obj 78 10 sel 99;
#X obj 314 11 sel 98;
#X obj 444 11 sel 97;
#X obj 531 10 sel 96;
#X obj 610 9 sel 95;
#X obj 688 7 sel 94;
#X obj 770 7 sel 93;
#X obj 867 8 sel 92;
#X obj 949 9 sel 91;
#X obj 1036 6 sel 90;
#X obj 1127 6 sel 89;
#X obj 1241 6 sel 88;
#X obj 76 151 spigot;
#X obj 75 194 tgl 15 0 empty empty empty 17 7 0 10 -262144 -1 -1 0
1;
#X msg 89 89 1;
#X obj 78 63 t b b, f 6;
#X msg 78 107 0;
#X obj 301 147 spigot;
#X obj 306 188 tgl 15 0 empty empty empty 17 7 0 10 -262144 -1 -1 0
1;
#X msg 320 83 1;
#X obj 309 57 t b b, f 6;
#X msg 308 99 0;
#X obj 426 148 spigot;
#X obj 433 188 tgl 15 0 empty empty empty 17 7 0 10 -262144 -1 -1 0
1;
#X msg 447 83 1;
#X obj 436 57 t b b, f 6;
#X msg 434 99 0;
#X obj 523 146 spigot;
#X obj 529 184 tgl 15 0 empty empty empty 17 7 0 10 -262144 -1 -1 0
1;
#X msg 543 79 1;
#X obj 532 53 t b b, f 6;
#X msg 535 99 0;
#X obj 607 145 spigot;
#X obj 609 181 tgl 15 0 empty empty empty 17 7 0 10 -262144 -1 -1 0
1;
#X msg 623 76 1;
#X obj 612 50 t b b, f 6;
#X msg 617 95 0;
#X obj 685 141 spigot;
#X obj 685 183 tgl 15 0 empty empty empty 17 7 0 10 -262144 -1 -1 0
1;
#X msg 701 73 1;
#X obj 690 47 t b b, f 6;
#X msg 700 91 0;
#X obj 775 139 spigot;
#X obj 772 180 tgl 15 0 empty empty empty 17 7 0 10 -262144 -1 -1 0
1;
#X msg 785 75 1;
#X obj 774 49 t b b, f 6;
#X msg 780 93 0;
#X obj 869 139 spigot;
#X obj 868 178 tgl 15 0 empty empty empty 17 7 0 10 -262144 -1 -1 0
1;
#X msg 882 73 1;
#X obj 871 47 t b b, f 6;
#X msg 880 91 0;
#X obj 952 139 spigot;
#X obj 953 178 tgl 15 0 empty empty empty 17 7 0 10 -262144 -1 -1 0
1;
#X msg 967 73 1;
#X obj 956 47 t b b, f 6;
#X msg 967 90 0;
#X obj 1042 135 spigot;
#X obj 1042 177 tgl 15 0 empty empty empty 17 7 0 10 -262144 -1 -1
0 1;
#X msg 1056 72 1;
#X obj 1045 46 t b b, f 6;
#X msg 1054 90 0;
#X obj 1133 138 spigot;
#X obj 1136 174 tgl 15 0 empty empty empty 17 7 0 10 -262144 -1 -1
0 1;
#X msg 1150 71 1;
#X obj 1139 45 t b b, f 6;
#X msg 1146 89 0;
#X obj 1249 139 spigot;
#X obj 1252 178 tgl 15 0 empty empty empty 17 7 0 10 -262144 -1 -1
0 1;
#X msg 1266 73 1;
#X obj 1255 47 t b b, f 6;
#X msg 1265 91 0;
#X obj 202 24 tgl 15 0 empty empty empty 0 -6 0 8 -262144 -1 -1 1 1
;
#X msg 202 49 \; pd dsp \$1;
#X obj 46 557 adc~;
#X obj 76 621 writesf~ 2;
#X msg 175 598 open \$1;
#X msg 21 404 start;
#X msg 75 405 stop;
#X obj 175 571 makefilename;
#X obj 194 512 + 1;
#X obj 22 656 writesf~ 2;
#X obj 22 598 spigot;
#X obj 88 575 spigot;
#X msg 77 532 1;
#X msg 42 531 0;
#X msg 46 503 1;
#X msg 89 505 0;
#X obj 79 478 sel 0 1;
#X obj 17 619 print l;
#X obj 86 595 print r;
#X obj 47 353 bng 15 250 50 0 empty empty empty 17 7 0 10 -262144 -1
-1;
#X obj 76 355 bng 15 250 50 0 empty empty empty 17 7 0 10 -262144 -1
-1;
#X obj 304 564 readsf~;
#X obj 700 743 dac~;
#X msg 314 478 1;
#X obj 306 526 print open;
#X obj 332 414 t b b;
#X obj 183 667 print file;
#X obj 121 332 loadbang;
#X obj 337 353 random;
#X floatatom 350 444 5 0 0 0 - - -, f 5;
#X msg 291 504 open file.\$1.wav;
#X obj 179 406 + 1;
#X msg 302 419 stop;
#X obj 206 -34 loadbang;
#X obj 152 510 f 1;
#X msg 204 414 set \$1;
#X obj 183 379 t b;
#X text 229 367 SAVER;
#X obj 46 310 sel 1 0;
#X obj 76 382 t b b;
#X obj 23 382 t b b b;
#X obj 299 320 sel 1 0;
#X text 108 36 RECORD;
#X text 320 35 PLAYBACK;
#X text 448 37 nigeria;
#X text 539 36 rwanda;
#X text 614 33 egypt;
#X text 694 31 ethiopia;
#X text 779 30 india;
#X text 879 27 china;
#X text 965 26 phillipines;
#X text 1062 28 mexico;
#X text 1221 27 afghanistan;
#X text 1152 27 brazil;
#X obj 166 257 noteout;
#X obj 76 221 metro 350;
#X obj 166 228 makenote 127 175;
#X msg 72 245 60;
#X text 170 206 LED SELECTOR;
#X obj 312 219 metro 350;
#X obj 429 216 metro 350;
#X obj 526 211 metro 350;
#X obj 610 209 metro 350;
#X obj 686 210 metro 350;
#X obj 772 208 metro 350;
#X obj 866 205 metro 350;
#X obj 951 205 metro 350;
#X obj 1047 206 metro 350;
#X obj 1133 206 metro 350;
#X obj 1261 208 metro 350;
#X msg 312 247 61;
#X msg 429 244 62;
#X msg 526 239 63;
#X msg 610 237 64;
#X msg 686 238 65;
#X msg 772 236 66;
#X msg 866 233 67;
#X msg 951 233 68;
#X msg 1047 234 69;
#X msg 1133 234 70;
#X msg 1261 236 71;
#X obj 83 443 tgl 15 0 empty empty empty 17 7 0 10 -262144 -1 -1 1
1;
#X msg 232 389 1;
#X obj 428 343 sel 1 0;
#X obj 429 379 t b b;
#X msg 429 411 stop;
#X obj 428 536 readsf~;
#X obj 429 437 random 5;
#X floatatom 428 459 5 0 0 0 - - -, f 5;
#X msg 429 477 1;
#X obj 520 401 sel 1 0;
#X obj 521 437 t b b;
#X msg 521 469 stop;
#X obj 520 594 readsf~;
#X obj 521 495 random 5;
#X floatatom 520 515 5 0 0 0 - - -, f 5;
#X msg 521 535 1;
#X obj 605 347 sel 1 0;
#X obj 606 383 t b b;
#X msg 606 415 stop;
#X obj 605 540 readsf~;
#X obj 606 441 random 5;
#X floatatom 605 461 5 0 0 0 - - -, f 5;
#X msg 606 481 1;
#X obj 689 475 sel 1 0;
#X obj 690 511 t b b;
#X msg 690 543 stop;
#X obj 689 668 readsf~;
#X obj 690 569 random 5;
#X floatatom 689 589 5 0 0 0 - - -, f 5;
#X msg 690 609 1;
#X obj 760 347 sel 1 0;
#X obj 761 383 t b b;
#X msg 761 415 stop;
#X obj 760 540 readsf~;
#X obj 761 441 random 5;
#X floatatom 760 461 5 0 0 0 - - -, f 5;
#X msg 761 481 1;
#X obj 853 419 sel 1 0;
#X obj 854 455 t b b;
#X msg 854 487 stop;
#X obj 853 612 readsf~;
#X obj 854 513 random 5;
#X floatatom 853 533 5 0 0 0 - - -, f 5;
#X msg 845 553 1;
#X obj 942 332 sel 1 0;
#X obj 943 368 t b b;
#X msg 943 400 stop;
#X obj 942 525 readsf~;
#X obj 943 426 random 5;
#X floatatom 942 446 5 0 0 0 - - -, f 5;
#X msg 943 466 1;
#X obj 1036 424 sel 1 0;
#X obj 1037 460 t b b;
#X msg 1037 492 stop;
#X obj 1036 617 readsf~;
#X obj 1037 518 random 5;
#X floatatom 1036 538 5 0 0 0 - - -, f 5;
#X msg 1037 558 1;
#X obj 1132 328 sel 1 0;
#X obj 1133 364 t b b;
#X msg 1133 396 stop;
#X obj 1131 525 readsf~;
#X obj 1133 422 random 5;
#X floatatom 1132 442 5 0 0 0 - - -, f 5;
#X msg 1133 462 1;
#X obj 1241 385 sel 1 0;
#X obj 1242 421 t b b;
#X msg 1242 453 stop;
#X obj 1241 578 readsf~;
#X obj 1242 479 random 5;
#X floatatom 1241 499 5 0 0 0 - - -, f 5;
#X msg 1242 519 1;
#X msg 1011 589 open mexi.\$1.wav;
#X msg 404 508 open nige.\$1.wav;
#X msg 495 566 open rwan.\$1.wav;
#X msg 580 512 open egyp.\$1.wav;
#X msg 664 640 open ethi.\$1.wav;
#X msg 735 512 open indi.\$1.wav;
#X msg 828 584 open chin.\$1.wav;
#X msg 917 497 open phil.\$1.wav;
#X msg 1107 493 open braz.\$1.wav;
#X msg 1216 550 open afgh.\$1.wav;
#X msg 284 -28 98;
#X connect 1 1 2 0;
#X connect 1 1 3 0;
#X connect 1 1 4 0;
#X connect 1 1 5 0;
#X connect 1 1 6 0;
#X connect 1 1 7 0;
#X connect 1 1 8 0;
#X connect 1 1 9 0;
#X connect 1 1 10 0;
#X connect 1 1 11 0;
#X connect 1 1 12 0;
#X connect 1 1 13 0;
#X connect 2 0 18 0;
#X connect 2 0 17 0;
#X connect 3 0 22 0;
#X connect 3 0 23 0;
#X connect 4 0 27 0;
#X connect 4 0 28 0;
#X connect 5 0 32 0;
#X connect 5 0 33 0;
#X connect 6 0 37 0;
#X connect 6 0 38 0;
#X connect 7 0 42 0;
#X connect 7 0 43 0;
#X connect 8 0 47 0;
#X connect 8 0 48 0;
#X connect 9 0 52 0;
#X connect 9 0 53 0;
#X connect 10 0 57 0;
#X connect 10 0 58 0;
#X connect 11 0 62 0;
#X connect 11 0 63 0;
#X connect 12 0 67 0;
#X connect 12 0 68 0;
#X connect 13 0 72 0;
#X connect 13 0 73 0;
#X connect 14 0 15 0;
#X connect 15 0 112 0;
#X connect 15 0 129 0;
#X connect 16 0 14 1;
#X connect 17 0 14 0;
#X connect 17 1 16 0;
#X connect 18 0 19 0;
#X connect 18 0 24 0;
#X connect 18 0 29 0;
#X connect 18 0 34 0;
#X connect 18 0 39 0;
#X connect 18 0 44 0;
#X connect 18 0 49 0;
#X connect 18 0 54 0;
#X connect 18 0 59 0;
#X connect 18 0 64 0;
#X connect 18 0 69 0;
#X connect 19 0 20 0;
#X connect 20 0 115 0;
#X connect 20 0 133 0;
#X connect 21 0 19 1;
#X connect 22 0 19 0;
#X connect 22 1 21 0;
#X connect 23 0 14 0;
#X connect 23 0 24 0;
#X connect 23 0 29 0;
#X connect 23 0 34 0;
#X connect 23 0 39 0;
#X connect 23 0 44 0;
#X connect 23 0 49 0;
#X connect 23 0 54 0;
#X connect 23 0 59 0;
#X connect 23 0 64 0;
#X connect 23 0 69 0;
#X connect 24 0 25 0;
#X connect 25 0 134 0;
#X connect 25 0 157 0;
#X connect 26 0 24 1;
#X connect 27 0 24 0;
#X connect 27 1 26 0;
#X connect 28 0 14 0;
#X connect 28 0 19 0;
#X connect 28 0 29 0;
#X connect 28 0 34 0;
#X connect 28 0 39 0;
#X connect 28 0 44 0;
#X connect 28 0 49 0;
#X connect 28 0 54 0;
#X connect 28 0 59 0;
#X connect 28 0 64 0;
#X connect 28 0 69 0;
#X connect 29 0 30 0;
#X connect 30 0 135 0;
#X connect 30 0 164 0;
#X connect 31 0 29 1;
#X connect 32 0 29 0;
#X connect 32 1 31 0;
#X connect 33 0 14 0;
#X connect 33 0 19 0;
#X connect 33 0 24 0;
#X connect 33 0 34 0;
#X connect 33 0 39 0;
#X connect 33 0 44 0;
#X connect 33 0 49 0;
#X connect 33 0 54 0;
#X connect 33 0 59 0;
#X connect 33 0 64 0;
#X connect 33 0 69 0;
#X connect 34 0 35 0;
#X connect 35 0 136 0;
#X connect 35 0 171 0;
#X connect 36 0 34 1;
#X connect 37 0 34 0;
#X connect 37 1 36 0;
#X connect 38 0 14 0;
#X connect 38 0 19 0;
#X connect 38 0 24 0;
#X connect 38 0 29 0;
#X connect 38 0 39 0;
#X connect 38 0 44 0;
#X connect 38 0 49 0;
#X connect 38 0 54 0;
#X connect 38 0 59 0;
#X connect 38 0 64 0;
#X connect 38 0 69 0;
#X connect 39 0 40 0;
#X connect 40 0 137 0;
#X connect 40 0 178 0;
#X connect 41 0 39 1;
#X connect 42 0 39 0;
#X connect 42 1 41 0;
#X connect 43 0 14 0;
#X connect 43 0 19 0;
#X connect 43 0 24 0;
#X connect 43 0 29 0;
#X connect 43 0 34 0;
#X connect 43 0 44 0;
#X connect 43 0 49 0;
#X connect 43 0 54 0;
#X connect 43 0 59 0;
#X connect 43 0 64 0;
#X connect 43 0 69 0;
#X connect 44 0 45 0;
#X connect 45 0 138 0;
#X connect 45 0 185 0;
#X connect 46 0 44 1;
#X connect 47 0 44 0;
#X connect 47 1 46 0;
#X connect 48 0 14 0;
#X connect 48 0 19 0;
#X connect 48 0 24 0;
#X connect 48 0 29 0;
#X connect 48 0 34 0;
#X connect 48 0 39 0;
#X connect 48 0 49 0;
#X connect 48 0 54 0;
#X connect 48 0 59 0;
#X connect 48 0 64 0;
#X connect 48 0 69 0;
#X connect 49 0 50 0;
#X connect 50 0 139 0;
#X connect 50 0 192 0;
#X connect 51 0 49 1;
#X connect 52 0 49 0;
#X connect 52 1 51 0;
#X connect 53 0 14 0;
#X connect 53 0 19 0;
#X connect 53 0 24 0;
#X connect 53 0 29 0;
#X connect 53 0 34 0;
#X connect 53 0 39 0;
#X connect 53 0 44 0;
#X connect 53 0 54 0;
#X connect 53 0 59 0;
#X connect 53 0 64 0;
#X connect 53 0 69 0;
#X connect 54 0 55 0;
#X connect 55 0 140 0;
#X connect 55 0 199 0;
#X connect 56 0 54 1;
#X connect 57 0 54 0;
#X connect 57 1 56 0;
#X connect 58 0 14 0;
#X connect 58 0 19 0;
#X connect 58 0 24 0;
#X connect 58 0 29 0;
#X connect 58 0 34 0;
#X connect 58 0 39 0;
#X connect 58 0 44 0;
#X connect 58 0 49 0;
#X connect 58 0 59 0;
#X connect 58 0 64 0;
#X connect 58 0 69 0;
#X connect 59 0 60 0;
#X connect 60 0 141 0;
#X connect 60 0 206 0;
#X connect 61 0 59 1;
#X connect 62 0 59 0;
#X connect 62 1 61 0;
#X connect 63 0 14 0;
#X connect 63 0 19 0;
#X connect 63 0 24 0;
#X connect 63 0 29 0;
#X connect 63 0 34 0;
#X connect 63 0 39 0;
#X connect 63 0 44 0;
#X connect 63 0 49 0;
#X connect 63 0 54 0;
#X connect 63 0 64 0;
#X connect 63 0 69 0;
#X connect 64 0 65 0;
#X connect 65 0 142 0;
#X connect 65 0 213 0;
#X connect 66 0 64 1;
#X connect 67 0 64 0;
#X connect 67 1 66 0;
#X connect 68 0 14 0;
#X connect 68 0 19 0;
#X connect 68 0 24 0;
#X connect 68 0 29 0;
#X connect 68 0 34 0;
#X connect 68 0 39 0;
#X connect 68 0 44 0;
#X connect 68 0 49 0;
#X connect 68 0 54 0;
#X connect 68 0 59 0;
#X connect 68 0 69 0;
#X connect 69 0 70 0;
#X connect 70 0 143 0;
#X connect 70 0 220 0;
#X connect 71 0 69 1;
#X connect 72 0 69 0;
#X connect 72 1 71 0;
#X connect 73 0 14 0;
#X connect 73 0 19 0;
#X connect 73 0 24 0;
#X connect 73 0 29 0;
#X connect 73 0 34 0;
#X connect 73 0 39 0;
#X connect 73 0 44 0;
#X connect 73 0 49 0;
#X connect 73 0 54 0;
#X connect 73 0 59 0;
#X connect 73 0 64 0;
#X connect 74 0 75 0;
#X connect 76 0 77 0;
#X connect 76 0 83 0;
#X connect 76 1 77 1;
#X connect 76 1 83 1;
#X connect 78 0 85 0;
#X connect 78 0 84 0;
#X connect 78 0 100 0;
#X connect 79 0 84 0;
#X connect 79 0 85 0;
#X connect 80 0 84 0;
#X connect 80 0 85 0;
#X connect 81 0 78 0;
#X connect 82 0 108 1;
#X connect 84 0 91 0;
#X connect 84 0 83 0;
#X connect 85 0 92 0;
#X connect 85 0 77 0;
#X connect 86 0 85 1;
#X connect 87 0 84 1;
#X connect 88 0 84 1;
#X connect 89 0 85 1;
#X connect 90 0 89 0;
#X connect 90 0 88 0;
#X connect 90 1 86 0;
#X connect 90 1 87 0;
#X connect 93 0 114 0;
#X connect 94 0 113 0;
#X connect 95 0 96 0;
#X connect 95 1 99 0;
#X connect 97 0 95 0;
#X connect 99 0 97 0;
#X connect 99 1 102 0;
#X connect 101 0 94 0;
#X connect 101 0 156 0;
#X connect 102 0 103 0;
#X connect 103 0 104 0;
#X connect 104 0 95 0;
#X connect 104 0 98 0;
#X connect 105 0 109 0;
#X connect 106 0 95 0;
#X connect 107 0 74 0;
#X connect 108 0 82 0;
#X connect 108 0 81 0;
#X connect 108 0 105 0;
#X connect 109 0 156 0;
#X connect 109 0 110 0;
#X connect 110 0 156 0;
#X connect 112 0 93 0;
#X connect 112 1 94 0;
#X connect 113 0 155 0;
#X connect 113 1 80 0;
#X connect 114 1 79 0;
#X connect 114 2 108 0;
#X connect 115 0 99 0;
#X connect 115 1 106 0;
#X connect 129 0 131 0;
#X connect 130 0 128 0;
#X connect 130 1 128 1;
#X connect 131 0 130 0;
#X connect 133 0 144 0;
#X connect 134 0 145 0;
#X connect 135 0 146 0;
#X connect 136 0 147 0;
#X connect 137 0 148 0;
#X connect 138 0 149 0;
#X connect 139 0 150 0;
#X connect 140 0 151 0;
#X connect 141 0 152 0;
#X connect 142 0 153 0;
#X connect 143 0 154 0;
#X connect 144 0 130 0;
#X connect 145 0 130 0;
#X connect 146 0 130 0;
#X connect 147 0 130 0;
#X connect 148 0 130 0;
#X connect 149 0 130 0;
#X connect 150 0 130 0;
#X connect 151 0 130 0;
#X connect 152 0 130 0;
#X connect 153 0 130 0;
#X connect 154 0 130 0;
#X connect 155 0 90 0;
#X connect 156 0 102 1;
#X connect 156 0 108 1;
#X connect 157 0 158 0;
#X connect 157 1 159 0;
#X connect 158 0 163 0;
#X connect 158 1 161 0;
#X connect 160 0 96 0;
#X connect 160 1 158 0;
#X connect 161 0 162 0;
#X connect 162 0 228 0;
#X connect 163 0 160 0;
#X connect 164 0 165 0;
#X connect 164 1 166 0;
#X connect 165 0 170 0;
#X connect 165 1 168 0;
#X connect 167 0 96 0;
#X connect 167 1 165 0;
#X connect 168 0 169 0;
#X connect 169 0 229 0;
#X connect 170 0 167 0;
#X connect 171 0 172 0;
#X connect 171 1 173 0;
#X connect 172 0 177 0;
#X connect 172 1 175 0;
#X connect 174 0 96 0;
#X connect 174 1 172 0;
#X connect 175 0 176 0;
#X connect 176 0 230 0;
#X connect 177 0 174 0;
#X connect 178 0 179 0;
#X connect 178 1 180 0;
#X connect 179 0 184 0;
#X connect 179 1 182 0;
#X connect 181 0 96 0;
#X connect 181 1 179 0;
#X connect 182 0 183 0;
#X connect 183 0 231 0;
#X connect 184 0 181 0;
#X connect 185 0 186 0;
#X connect 185 1 187 0;
#X connect 186 0 191 0;
#X connect 186 1 189 0;
#X connect 188 0 96 0;
#X connect 188 1 186 0;
#X connect 189 0 190 0;
#X connect 190 0 232 0;
#X connect 191 0 188 0;
#X connect 192 0 193 0;
#X connect 192 1 194 0;
#X connect 193 0 198 0;
#X connect 193 1 196 0;
#X connect 195 0 96 0;
#X connect 195 1 193 0;
#X connect 196 0 197 0;
#X connect 197 0 233 0;
#X connect 198 0 195 0;
#X connect 199 0 200 0;
#X connect 199 1 201 0;
#X connect 200 0 205 0;
#X connect 200 1 203 0;
#X connect 202 0 96 0;
#X connect 202 1 200 0;
#X connect 203 0 204 0;
#X connect 204 0 234 0;
#X connect 205 0 202 0;
#X connect 206 0 207 0;
#X connect 206 1 208 0;
#X connect 207 0 212 0;
#X connect 207 1 210 0;
#X connect 209 0 96 0;
#X connect 209 1 207 0;
#X connect 210 0 211 0;
#X connect 211 0 227 0;
#X connect 212 0 209 0;
#X connect 213 0 214 0;
#X connect 213 1 215 0;
#X connect 214 0 219 0;
#X connect 214 1 217 0;
#X connect 216 0 96 0;
#X connect 216 1 214 0;
#X connect 217 0 218 0;
#X connect 218 0 235 0;
#X connect 219 0 216 0;
#X connect 220 0 221 0;
#X connect 220 1 222 0;
#X connect 221 0 226 0;
#X connect 221 1 224 0;
#X connect 223 0 96 0;
#X connect 223 1 221 0;
#X connect 224 0 225 0;
#X connect 225 0 236 0;
#X connect 226 0 223 0;
#X connect 227 0 209 0;
#X connect 228 0 160 0;
#X connect 229 0 167 0;
#X connect 230 0 174 0;
#X connect 231 0 181 0;
#X connect 232 0 188 0;
#X connect 233 0 195 0;
#X connect 234 0 202 0;
#X connect 235 0 216 0;
#X connect 236 0 223 0;
#X connect 237 0 3 0;
